<svg xmlns="http://www.w3.org/2000/svg" viewBox="0 0 32 32" width="32" height="32">
  <rect width="32" height="32" rx="4" fill="#2196F3"/>
  <rect x="4" y="4" width="24" height="24" rx="2" fill="#fff"/>
  <rect x="6" y="6" width="20" height="6" fill="#f0f0f0"/>
  <text x="16" y="10" text-anchor="middle" font-family="monospace" font-size="4" fill="#333">123</text>
  <g fill="#2196F3">
    <rect x="6" y="14" width="4" height="3" rx="0.5"/>
    <rect x="11" y="14" width="4" height="3" rx="0.5"/>
    <rect x="16" y="14" width="4" height="3" rx="0.5"/>
    <rect x="21" y="14" width="5" height="3" rx="0.5"/>
    <rect x="6" y="18" width="4" height="3" rx="0.5"/>
    <rect x="11" y="18" width="4" height="3" rx="0.5"/>
    <rect x="16" y="18" width="4" height="3" rx="0.5"/>
    <rect x="21" y="18" width="5" height="3" rx="0.5"/>
    <rect x="6" y="22" width="4" height="4" rx="0.5"/>
    <rect x="11" y="22" width="9" height="4" rx="0.5"/>
    <rect x="21" y="22" width="5" height="4" rx="0.5"/>
  </g>
  <text x="8" y="16.5" text-anchor="middle" font-family="Arial" font-size="2" fill="white">7</text>
  <text x="13" y="16.5" text-anchor="middle" font-family="Arial" font-size="2" fill="white">8</text>
  <text x="18" y="16.5" text-anchor="middle" font-family="Arial" font-size="2" fill="white">9</text>
  <text x="23.5" y="16.5" text-anchor="middle" font-family="Arial" font-size="2" fill="white">รท</text>
  <text x="8" y="20.5" text-anchor="middle" font-family="Arial" font-size="2" fill="white">4</text>
  <text x="13" y="20.5" text-anchor="middle" font-family="Arial" font-size="2" fill="white">5</text>
  <text x="18" y="20.5" text-anchor="middle" font-family="Arial" font-size="2" fill="white">6</text>
  <text x="23.5" y="20.5" text-anchor="middle" font-family="Arial" font-size="2" fill="white">ร</text>
  <text x="8" y="24.5" text-anchor="middle" font-family="Arial" font-size="2" fill="white">0</text>
  <text x="15.5" y="24.5" text-anchor="middle" font-family="Arial" font-size="2" fill="white">=</text>
  <text x="23.5" y="24.5" text-anchor="middle" font-family="Arial" font-size="2" fill="white">+</text>
</svg>